<?xml version="1.0" encoding="UTF-8" standalone="no"?><svg xmlns="http://www.w3.org/2000/svg" xmlns:xlink="http://www.w3.org/1999/xlink" contentStyleType="text/css" height="491px" preserveAspectRatio="none" style="width:1766px;height:491px;background:#FFFFFF;" version="1.1" viewBox="0 0 1766 491" width="1766px" zoomAndPan="magnify"><defs/><g><rect fill="#FFFFFF" height="310.1738" style="stroke:#181818;stroke-width:1.0;" width="10" x="198.5" y="91.4883"/><rect fill="#FFFFFF" height="279.8633" style="stroke:#181818;stroke-width:1.0;" width="10" x="376.5" y="91.4883"/><rect fill="#FFFFFF" height="301.1738" style="stroke:#181818;stroke-width:1.0;" width="10" x="1418.5" y="91.4883"/><rect fill="none" height="60.6211" style="stroke:#000000;stroke-width:1.5;" width="617" x="10" y="98.4883"/><rect fill="none" height="60.6211" style="stroke:#000000;stroke-width:1.5;" width="818" x="10" y="173.1094"/><rect fill="none" height="116.6211" style="stroke:#000000;stroke-width:1.5;" width="1348" x="10" y="247.7305"/><line style="stroke:#181818;stroke-width:0.5;stroke-dasharray:5.0,5.0;" x1="49" x2="49" y1="81.4883" y2="410.6621"/><line style="stroke:#181818;stroke-width:0.5;stroke-dasharray:5.0,5.0;" x1="203" x2="203" y1="81.4883" y2="410.6621"/><line style="stroke:#181818;stroke-width:0.5;stroke-dasharray:5.0,5.0;" x1="381" x2="381" y1="81.4883" y2="410.6621"/><line style="stroke:#181818;stroke-width:0.5;stroke-dasharray:5.0,5.0;" x1="530" x2="530" y1="81.4883" y2="410.6621"/><line style="stroke:#181818;stroke-width:0.5;stroke-dasharray:5.0,5.0;" x1="722" x2="722" y1="81.4883" y2="410.6621"/><line style="stroke:#181818;stroke-width:0.5;stroke-dasharray:5.0,5.0;" x1="861" x2="861" y1="81.4883" y2="410.6621"/><line style="stroke:#181818;stroke-width:0.5;stroke-dasharray:5.0,5.0;" x1="968" x2="968" y1="81.4883" y2="410.6621"/><line style="stroke:#181818;stroke-width:0.5;stroke-dasharray:5.0,5.0;" x1="1095" x2="1095" y1="81.4883" y2="410.6621"/><line style="stroke:#181818;stroke-width:0.5;stroke-dasharray:5.0,5.0;" x1="1206" x2="1206" y1="81.4883" y2="410.6621"/><line style="stroke:#181818;stroke-width:0.5;stroke-dasharray:5.0,5.0;" x1="1306" x2="1306" y1="81.4883" y2="410.6621"/><line style="stroke:#181818;stroke-width:0.5;stroke-dasharray:5.0,5.0;" x1="1423" x2="1423" y1="81.4883" y2="410.6621"/><line style="stroke:#181818;stroke-width:0.5;stroke-dasharray:5.0,5.0;" x1="1713.5" x2="1713.5" y1="81.4883" y2="410.6621"/><text fill="#000000" font-family="sans-serif" font-size="14" lengthAdjust="spacing" textLength="52" x="20" y="78.5352">usuario</text><ellipse cx="49" cy="13.5" fill="#E2E2F0" rx="8" ry="8" style="stroke:#181818;stroke-width:0.5;"/><path d="M49,21.5 L49,48.5 M36,29.5 L62,29.5 M49,48.5 L36,63.5 M49,48.5 L62,63.5 " fill="none" style="stroke:#181818;stroke-width:0.5;"/><text fill="#000000" font-family="sans-serif" font-size="14" lengthAdjust="spacing" textLength="52" x="20" y="423.1973">usuario</text><ellipse cx="49" cy="434.6504" fill="#E2E2F0" rx="8" ry="8" style="stroke:#181818;stroke-width:0.5;"/><path d="M49,442.6504 L49,469.6504 M36,450.6504 L62,450.6504 M49,469.6504 L36,484.6504 M49,469.6504 L62,484.6504 " fill="none" style="stroke:#181818;stroke-width:0.5;"/><rect fill="#E2E2F0" height="30.4883" rx="2.5" ry="2.5" style="stroke:#181818;stroke-width:0.5;" width="231" x="88" y="50"/><text fill="#000000" font-family="sans-serif" font-size="14" lengthAdjust="spacing" textLength="217" x="95" y="70.5352">initializeFromPatientsQueueFile</text><rect fill="#E2E2F0" height="30.4883" rx="2.5" ry="2.5" style="stroke:#181818;stroke-width:0.5;" width="231" x="88" y="409.6621"/><text fill="#000000" font-family="sans-serif" font-size="14" lengthAdjust="spacing" textLength="217" x="95" y="430.1973">initializeFromPatientsQueueFile</text><rect fill="#E2E2F0" height="30.4883" rx="2.5" ry="2.5" style="stroke:#181818;stroke-width:0.5;" width="105" x="329" y="50"/><text fill="#000000" font-family="sans-serif" font-size="14" lengthAdjust="spacing" textLength="91" x="336" y="70.5352">checkButtons</text><rect fill="#E2E2F0" height="30.4883" rx="2.5" ry="2.5" style="stroke:#181818;stroke-width:0.5;" width="105" x="329" y="409.6621"/><text fill="#000000" font-family="sans-serif" font-size="14" lengthAdjust="spacing" textLength="91" x="336" y="430.1973">checkButtons</text><rect fill="#E2E2F0" height="30.4883" rx="2.5" ry="2.5" style="stroke:#181818;stroke-width:0.5;" width="173" x="444" y="50"/><text fill="#000000" font-family="sans-serif" font-size="14" lengthAdjust="spacing" textLength="159" x="451" y="70.5352">highPriorityButtonState</text><rect fill="#E2E2F0" height="30.4883" rx="2.5" ry="2.5" style="stroke:#181818;stroke-width:0.5;" width="173" x="444" y="409.6621"/><text fill="#000000" font-family="sans-serif" font-size="14" lengthAdjust="spacing" textLength="159" x="451" y="430.1973">highPriorityButtonState</text><rect fill="#E2E2F0" height="30.4883" rx="2.5" ry="2.5" style="stroke:#181818;stroke-width:0.5;" width="191" x="627" y="50"/><text fill="#000000" font-family="sans-serif" font-size="14" lengthAdjust="spacing" textLength="177" x="634" y="70.5352">normalPriorityButtonState</text><rect fill="#E2E2F0" height="30.4883" rx="2.5" ry="2.5" style="stroke:#181818;stroke-width:0.5;" width="191" x="627" y="409.6621"/><text fill="#000000" font-family="sans-serif" font-size="14" lengthAdjust="spacing" textLength="177" x="634" y="430.1973">normalPriorityButtonState</text><rect fill="#E2E2F0" height="30.4883" rx="2.5" ry="2.5" style="stroke:#181818;stroke-width:0.5;" width="66" x="828" y="50"/><text fill="#000000" font-family="sans-serif" font-size="14" lengthAdjust="spacing" textLength="52" x="835" y="70.5352">activate</text><rect fill="#E2E2F0" height="30.4883" rx="2.5" ry="2.5" style="stroke:#181818;stroke-width:0.5;" width="66" x="828" y="409.6621"/><text fill="#000000" font-family="sans-serif" font-size="14" lengthAdjust="spacing" textLength="52" x="835" y="430.1973">activate</text><rect fill="#E2E2F0" height="30.4883" rx="2.5" ry="2.5" style="stroke:#181818;stroke-width:0.5;" width="129" x="904" y="50"/><text fill="#000000" font-family="sans-serif" font-size="14" lengthAdjust="spacing" textLength="115" x="911" y="70.5352">serveButtonState</text><rect fill="#E2E2F0" height="30.4883" rx="2.5" ry="2.5" style="stroke:#181818;stroke-width:0.5;" width="129" x="904" y="409.6621"/><text fill="#000000" font-family="sans-serif" font-size="14" lengthAdjust="spacing" textLength="115" x="911" y="430.1973">serveButtonState</text><rect fill="#E2E2F0" height="30.4883" rx="2.5" ry="2.5" style="stroke:#181818;stroke-width:0.5;" width="105" x="1043" y="50"/><text fill="#000000" font-family="sans-serif" font-size="14" lengthAdjust="spacing" textLength="91" x="1050" y="70.5352">checkQueues</text><rect fill="#E2E2F0" height="30.4883" rx="2.5" ry="2.5" style="stroke:#181818;stroke-width:0.5;" width="105" x="1043" y="409.6621"/><text fill="#000000" font-family="sans-serif" font-size="14" lengthAdjust="spacing" textLength="91" x="1050" y="430.1973">checkQueues</text><rect fill="#E2E2F0" height="30.4883" rx="2.5" ry="2.5" style="stroke:#181818;stroke-width:0.5;" width="97" x="1158" y="50"/><text fill="#000000" font-family="sans-serif" font-size="14" lengthAdjust="spacing" textLength="83" x="1165" y="70.5352">servePatient</text><rect fill="#E2E2F0" height="30.4883" rx="2.5" ry="2.5" style="stroke:#181818;stroke-width:0.5;" width="97" x="1158" y="409.6621"/><text fill="#000000" font-family="sans-serif" font-size="14" lengthAdjust="spacing" textLength="83" x="1165" y="430.1973">servePatient</text><rect fill="#E2E2F0" height="30.4883" rx="2.5" ry="2.5" style="stroke:#181818;stroke-width:0.5;" width="83" x="1265" y="50"/><text fill="#000000" font-family="sans-serif" font-size="14" lengthAdjust="spacing" textLength="69" x="1272" y="70.5352">deactivate</text><rect fill="#E2E2F0" height="30.4883" rx="2.5" ry="2.5" style="stroke:#181818;stroke-width:0.5;" width="83" x="1265" y="409.6621"/><text fill="#000000" font-family="sans-serif" font-size="14" lengthAdjust="spacing" textLength="69" x="1272" y="430.1973">deactivate</text><rect fill="#E2E2F0" height="30.4883" rx="2.5" ry="2.5" style="stroke:#181818;stroke-width:0.5;" width="131" x="1358" y="50"/><text fill="#000000" font-family="sans-serif" font-size="14" lengthAdjust="spacing" textLength="117" x="1365" y="70.5352">saveCurrentState</text><rect fill="#E2E2F0" height="30.4883" rx="2.5" ry="2.5" style="stroke:#181818;stroke-width:0.5;" width="131" x="1358" y="409.6621"/><text fill="#000000" font-family="sans-serif" font-size="14" lengthAdjust="spacing" textLength="117" x="1365" y="430.1973">saveCurrentState</text><rect fill="#E2E2F0" height="30.4883" rx="2.5" ry="2.5" style="stroke:#181818;stroke-width:0.5;" width="94" x="1666.5" y="50"/><text fill="#000000" font-family="sans-serif" font-size="14" lengthAdjust="spacing" textLength="80" x="1673.5" y="70.5352">pacients.txt</text><rect fill="#E2E2F0" height="30.4883" rx="2.5" ry="2.5" style="stroke:#181818;stroke-width:0.5;" width="94" x="1666.5" y="409.6621"/><text fill="#000000" font-family="sans-serif" font-size="14" lengthAdjust="spacing" textLength="80" x="1673.5" y="430.1973">pacients.txt</text><rect fill="#FFFFFF" height="310.1738" style="stroke:#181818;stroke-width:1.0;" width="10" x="198.5" y="91.4883"/><rect fill="#FFFFFF" height="279.8633" style="stroke:#181818;stroke-width:1.0;" width="10" x="376.5" y="91.4883"/><rect fill="#FFFFFF" height="301.1738" style="stroke:#181818;stroke-width:1.0;" width="10" x="1418.5" y="91.4883"/><path d="M10,98.4883 L212,98.4883 L212,105.7988 L202,115.7988 L10,115.7988 L10,98.4883 " fill="#EEEEEE" style="stroke:#000000;stroke-width:1.5;"/><rect fill="none" height="60.6211" style="stroke:#000000;stroke-width:1.5;" width="617" x="10" y="98.4883"/><text fill="#000000" font-family="sans-serif" font-size="13" font-weight="bold" lengthAdjust="spacing" textLength="157" x="25" y="112.0566">highPriorityButtonState</text><polygon fill="#181818" points="518.5,117.7988,528.5,121.7988,518.5,125.7988,522.5,121.7988" style="stroke:#181818;stroke-width:1.0;"/><line style="stroke:#181818;stroke-width:1.0;" x1="49" x2="524.5" y1="121.7988" y2="121.7988"/><polygon fill="#181818" points="397.5,147.1094,387.5,151.1094,397.5,155.1094,393.5,151.1094" style="stroke:#181818;stroke-width:1.0;"/><line style="stroke:#181818;stroke-width:1.0;stroke-dasharray:2.0,2.0;" x1="391.5" x2="529.5" y1="151.1094" y2="151.1094"/><text fill="#000000" font-family="sans-serif" font-size="13" lengthAdjust="spacing" textLength="57" x="403.5" y="146.3672">returns 0</text><path d="M10,173.1094 L229,173.1094 L229,180.4199 L219,190.4199 L10,190.4199 L10,173.1094 " fill="#EEEEEE" style="stroke:#000000;stroke-width:1.5;"/><rect fill="none" height="60.6211" style="stroke:#000000;stroke-width:1.5;" width="818" x="10" y="173.1094"/><text fill="#000000" font-family="sans-serif" font-size="13" font-weight="bold" lengthAdjust="spacing" textLength="174" x="25" y="186.6777">normalPriorityButtonState</text><polygon fill="#181818" points="710.5,192.4199,720.5,196.4199,710.5,200.4199,714.5,196.4199" style="stroke:#181818;stroke-width:1.0;"/><line style="stroke:#181818;stroke-width:1.0;" x1="49" x2="716.5" y1="196.4199" y2="196.4199"/><polygon fill="#181818" points="397.5,221.7305,387.5,225.7305,397.5,229.7305,393.5,225.7305" style="stroke:#181818;stroke-width:1.0;"/><line style="stroke:#181818;stroke-width:1.0;stroke-dasharray:2.0,2.0;" x1="391.5" x2="721.5" y1="225.7305" y2="225.7305"/><text fill="#000000" font-family="sans-serif" font-size="13" lengthAdjust="spacing" textLength="57" x="403.5" y="220.9883">returns 0</text><path d="M10,247.7305 L169,247.7305 L169,255.041 L159,265.041 L10,265.041 L10,247.7305 " fill="#EEEEEE" style="stroke:#000000;stroke-width:1.5;"/><rect fill="none" height="116.6211" style="stroke:#000000;stroke-width:1.5;" width="1348" x="10" y="247.7305"/><text fill="#000000" font-family="sans-serif" font-size="13" font-weight="bold" lengthAdjust="spacing" textLength="114" x="25" y="261.2988">serveButtonState</text><polygon fill="#181818" points="956.5,267.041,966.5,271.041,956.5,275.041,960.5,271.041" style="stroke:#181818;stroke-width:1.0;"/><line style="stroke:#181818;stroke-width:1.0;" x1="861" x2="962.5" y1="271.041" y2="271.041"/><polygon fill="#181818" points="956.5,281.041,966.5,285.041,956.5,289.041,960.5,285.041" style="stroke:#181818;stroke-width:1.0;"/><line style="stroke:#181818;stroke-width:1.0;" x1="49" x2="962.5" y1="285.041" y2="285.041"/><polygon fill="#181818" points="1083.5,295.041,1093.5,299.041,1083.5,303.041,1087.5,299.041" style="stroke:#181818;stroke-width:1.0;"/><line style="stroke:#181818;stroke-width:1.0;" x1="968.5" x2="1089.5" y1="299.041" y2="299.041"/><polygon fill="#181818" points="1194.5,309.041,1204.5,313.041,1194.5,317.041,1198.5,313.041" style="stroke:#181818;stroke-width:1.0;"/><line style="stroke:#181818;stroke-width:1.0;" x1="1095.5" x2="1200.5" y1="313.041" y2="313.041"/><polygon fill="#181818" points="60,338.3516,50,342.3516,60,346.3516,56,342.3516" style="stroke:#181818;stroke-width:1.0;"/><line style="stroke:#181818;stroke-width:1.0;stroke-dasharray:2.0,2.0;" x1="54" x2="1205.5" y1="342.3516" y2="342.3516"/><text fill="#000000" font-family="sans-serif" font-size="13" lengthAdjust="spacing" textLength="412" x="66" y="337.6094">retorna que paciente esta sendo atendido e o numero do paciente</text><polygon fill="#181818" points="979.5,352.3516,969.5,356.3516,979.5,360.3516,975.5,356.3516" style="stroke:#181818;stroke-width:1.0;"/><line style="stroke:#181818;stroke-width:1.0;" x1="973.5" x2="1305.5" y1="356.3516" y2="356.3516"/><polygon fill="#181818" points="1701.5,388.6621,1711.5,392.6621,1701.5,396.6621,1705.5,392.6621" style="stroke:#181818;stroke-width:1.0;"/><line style="stroke:#181818;stroke-width:1.0;stroke-dasharray:2.0,2.0;" x1="1423.5" x2="1707.5" y1="392.6621" y2="392.6621"/><text fill="#000000" font-family="sans-serif" font-size="13" lengthAdjust="spacing" textLength="261" x="1430.5" y="387.9199">salva no arquivo o entado corrente da fila</text><!--MD5=[9ec1c57d03921e75bdb651431a7e0d28]
@startuml diagrama_sequencia_GB

actor usuario

activate initializeFromPatientsQueueFile
deactivate initializeFromPatientsQueueFile

activate checkButtons

    group highPriorityButtonState
        usuario -> highPriorityButtonState
        highPriorityButtonState - -> checkButtons : returns 0
    end

    group normalPriorityButtonState
        usuario -> normalPriorityButtonState
        normalPriorityButtonState - -> checkButtons : returns 0
    end

    group serveButtonState
        activate -> serveButtonState
            usuario -> serveButtonState
            serveButtonState -> checkQueues
            checkQueues -> servePatient
            servePatient - -> usuario : retorna que paciente esta sendo atendido e o numero do paciente
        deactivate -> serveButtonState
    end
deactivate checkButtons

activate saveCurrentState
    saveCurrentState - -> pacients.txt : salva no arquivo o entado corrente da fila
deactivate saveCurrentState


@enduml diagrama_sequencia_GB

PlantUML version 1.2022.7(Mon Aug 22 14:01:30 BRT 2022)
(GPL source distribution)
Java Runtime: OpenJDK Runtime Environment
JVM: OpenJDK 64-Bit Server VM
Default Encoding: UTF-8
Language: pt
Country: BR
--></g></svg>