<?xml version="1.0" encoding="UTF-8" standalone="no"?><svg xmlns="http://www.w3.org/2000/svg" xmlns:xlink="http://www.w3.org/1999/xlink" contentStyleType="text/css" height="463px" preserveAspectRatio="none" style="width:1597px;height:463px;background:#FFFFFF;" version="1.1" viewBox="0 0 1597 463" width="1597px" zoomAndPan="magnify"><defs/><g><rect fill="#FFFFFF" height="282.1738" style="stroke:#181818;stroke-width:1.0;" width="10" x="198.5" y="91.4883"/><rect fill="#FFFFFF" height="251.8633" style="stroke:#181818;stroke-width:1.0;" width="10" x="376.5" y="91.4883"/><rect fill="#FFFFFF" height="236.8633" style="stroke:#181818;stroke-width:1.0;" width="10" x="887.5" y="91.4883"/><rect fill="#FFFFFF" height="273.1738" style="stroke:#181818;stroke-width:1.0;" width="10" x="1249.5" y="91.4883"/><rect fill="none" height="60.6211" style="stroke:#000000;stroke-width:1.5;" width="617" x="10" y="98.4883"/><rect fill="none" height="60.6211" style="stroke:#000000;stroke-width:1.5;" width="818" x="10" y="173.1094"/><rect fill="none" height="88.6211" style="stroke:#000000;stroke-width:1.5;" width="1179" x="10" y="247.7305"/><line style="stroke:#181818;stroke-width:0.5;stroke-dasharray:5.0,5.0;" x1="49" x2="49" y1="81.4883" y2="382.6621"/><line style="stroke:#181818;stroke-width:0.5;stroke-dasharray:5.0,5.0;" x1="203" x2="203" y1="81.4883" y2="382.6621"/><line style="stroke:#181818;stroke-width:0.5;stroke-dasharray:5.0,5.0;" x1="381" x2="381" y1="81.4883" y2="382.6621"/><line style="stroke:#181818;stroke-width:0.5;stroke-dasharray:5.0,5.0;" x1="530" x2="530" y1="81.4883" y2="382.6621"/><line style="stroke:#181818;stroke-width:0.5;stroke-dasharray:5.0,5.0;" x1="722" x2="722" y1="81.4883" y2="382.6621"/><line style="stroke:#181818;stroke-width:0.5;stroke-dasharray:5.0,5.0;" x1="892" x2="892" y1="81.4883" y2="382.6621"/><line style="stroke:#181818;stroke-width:0.5;stroke-dasharray:5.0,5.0;" x1="1019" x2="1019" y1="81.4883" y2="382.6621"/><line style="stroke:#181818;stroke-width:0.5;stroke-dasharray:5.0,5.0;" x1="1130" x2="1130" y1="81.4883" y2="382.6621"/><line style="stroke:#181818;stroke-width:0.5;stroke-dasharray:5.0,5.0;" x1="1254" x2="1254" y1="81.4883" y2="382.6621"/><line style="stroke:#181818;stroke-width:0.5;stroke-dasharray:5.0,5.0;" x1="1544.5" x2="1544.5" y1="81.4883" y2="382.6621"/><text fill="#000000" font-family="sans-serif" font-size="14" lengthAdjust="spacing" textLength="52" x="20" y="78.5352">usuario</text><ellipse cx="49" cy="13.5" fill="#E2E2F0" rx="8" ry="8" style="stroke:#181818;stroke-width:0.5;"/><path d="M49,21.5 L49,48.5 M36,29.5 L62,29.5 M49,48.5 L36,63.5 M49,48.5 L62,63.5 " fill="none" style="stroke:#181818;stroke-width:0.5;"/><text fill="#000000" font-family="sans-serif" font-size="14" lengthAdjust="spacing" textLength="52" x="20" y="395.1973">usuario</text><ellipse cx="49" cy="406.6504" fill="#E2E2F0" rx="8" ry="8" style="stroke:#181818;stroke-width:0.5;"/><path d="M49,414.6504 L49,441.6504 M36,422.6504 L62,422.6504 M49,441.6504 L36,456.6504 M49,441.6504 L62,456.6504 " fill="none" style="stroke:#181818;stroke-width:0.5;"/><rect fill="#E2E2F0" height="30.4883" rx="2.5" ry="2.5" style="stroke:#181818;stroke-width:0.5;" width="231" x="88" y="50"/><text fill="#000000" font-family="sans-serif" font-size="14" lengthAdjust="spacing" textLength="217" x="95" y="70.5352">initializeFromPatientsQueueFile</text><rect fill="#E2E2F0" height="30.4883" rx="2.5" ry="2.5" style="stroke:#181818;stroke-width:0.5;" width="231" x="88" y="381.6621"/><text fill="#000000" font-family="sans-serif" font-size="14" lengthAdjust="spacing" textLength="217" x="95" y="402.1973">initializeFromPatientsQueueFile</text><rect fill="#E2E2F0" height="30.4883" rx="2.5" ry="2.5" style="stroke:#181818;stroke-width:0.5;" width="105" x="329" y="50"/><text fill="#000000" font-family="sans-serif" font-size="14" lengthAdjust="spacing" textLength="91" x="336" y="70.5352">checkButtons</text><rect fill="#E2E2F0" height="30.4883" rx="2.5" ry="2.5" style="stroke:#181818;stroke-width:0.5;" width="105" x="329" y="381.6621"/><text fill="#000000" font-family="sans-serif" font-size="14" lengthAdjust="spacing" textLength="91" x="336" y="402.1973">checkButtons</text><rect fill="#E2E2F0" height="30.4883" rx="2.5" ry="2.5" style="stroke:#181818;stroke-width:0.5;" width="173" x="444" y="50"/><text fill="#000000" font-family="sans-serif" font-size="14" lengthAdjust="spacing" textLength="159" x="451" y="70.5352">highPriorityButtonState</text><rect fill="#E2E2F0" height="30.4883" rx="2.5" ry="2.5" style="stroke:#181818;stroke-width:0.5;" width="173" x="444" y="381.6621"/><text fill="#000000" font-family="sans-serif" font-size="14" lengthAdjust="spacing" textLength="159" x="451" y="402.1973">highPriorityButtonState</text><rect fill="#E2E2F0" height="30.4883" rx="2.5" ry="2.5" style="stroke:#181818;stroke-width:0.5;" width="191" x="627" y="50"/><text fill="#000000" font-family="sans-serif" font-size="14" lengthAdjust="spacing" textLength="177" x="634" y="70.5352">normalPriorityButtonState</text><rect fill="#E2E2F0" height="30.4883" rx="2.5" ry="2.5" style="stroke:#181818;stroke-width:0.5;" width="191" x="627" y="381.6621"/><text fill="#000000" font-family="sans-serif" font-size="14" lengthAdjust="spacing" textLength="177" x="634" y="402.1973">normalPriorityButtonState</text><rect fill="#E2E2F0" height="30.4883" rx="2.5" ry="2.5" style="stroke:#181818;stroke-width:0.5;" width="129" x="828" y="50"/><text fill="#000000" font-family="sans-serif" font-size="14" lengthAdjust="spacing" textLength="115" x="835" y="70.5352">serveButtonState</text><rect fill="#E2E2F0" height="30.4883" rx="2.5" ry="2.5" style="stroke:#181818;stroke-width:0.5;" width="129" x="828" y="381.6621"/><text fill="#000000" font-family="sans-serif" font-size="14" lengthAdjust="spacing" textLength="115" x="835" y="402.1973">serveButtonState</text><rect fill="#E2E2F0" height="30.4883" rx="2.5" ry="2.5" style="stroke:#181818;stroke-width:0.5;" width="105" x="967" y="50"/><text fill="#000000" font-family="sans-serif" font-size="14" lengthAdjust="spacing" textLength="91" x="974" y="70.5352">checkQueues</text><rect fill="#E2E2F0" height="30.4883" rx="2.5" ry="2.5" style="stroke:#181818;stroke-width:0.5;" width="105" x="967" y="381.6621"/><text fill="#000000" font-family="sans-serif" font-size="14" lengthAdjust="spacing" textLength="91" x="974" y="402.1973">checkQueues</text><rect fill="#E2E2F0" height="30.4883" rx="2.5" ry="2.5" style="stroke:#181818;stroke-width:0.5;" width="97" x="1082" y="50"/><text fill="#000000" font-family="sans-serif" font-size="14" lengthAdjust="spacing" textLength="83" x="1089" y="70.5352">servePatient</text><rect fill="#E2E2F0" height="30.4883" rx="2.5" ry="2.5" style="stroke:#181818;stroke-width:0.5;" width="97" x="1082" y="381.6621"/><text fill="#000000" font-family="sans-serif" font-size="14" lengthAdjust="spacing" textLength="83" x="1089" y="402.1973">servePatient</text><rect fill="#E2E2F0" height="30.4883" rx="2.5" ry="2.5" style="stroke:#181818;stroke-width:0.5;" width="131" x="1189" y="50"/><text fill="#000000" font-family="sans-serif" font-size="14" lengthAdjust="spacing" textLength="117" x="1196" y="70.5352">saveCurrentState</text><rect fill="#E2E2F0" height="30.4883" rx="2.5" ry="2.5" style="stroke:#181818;stroke-width:0.5;" width="131" x="1189" y="381.6621"/><text fill="#000000" font-family="sans-serif" font-size="14" lengthAdjust="spacing" textLength="117" x="1196" y="402.1973">saveCurrentState</text><rect fill="#E2E2F0" height="30.4883" rx="2.5" ry="2.5" style="stroke:#181818;stroke-width:0.5;" width="94" x="1497.5" y="50"/><text fill="#000000" font-family="sans-serif" font-size="14" lengthAdjust="spacing" textLength="80" x="1504.5" y="70.5352">pacients.txt</text><rect fill="#E2E2F0" height="30.4883" rx="2.5" ry="2.5" style="stroke:#181818;stroke-width:0.5;" width="94" x="1497.5" y="381.6621"/><text fill="#000000" font-family="sans-serif" font-size="14" lengthAdjust="spacing" textLength="80" x="1504.5" y="402.1973">pacients.txt</text><rect fill="#FFFFFF" height="282.1738" style="stroke:#181818;stroke-width:1.0;" width="10" x="198.5" y="91.4883"/><rect fill="#FFFFFF" height="251.8633" style="stroke:#181818;stroke-width:1.0;" width="10" x="376.5" y="91.4883"/><rect fill="#FFFFFF" height="236.8633" style="stroke:#181818;stroke-width:1.0;" width="10" x="887.5" y="91.4883"/><rect fill="#FFFFFF" height="273.1738" style="stroke:#181818;stroke-width:1.0;" width="10" x="1249.5" y="91.4883"/><path d="M10,98.4883 L212,98.4883 L212,105.7988 L202,115.7988 L10,115.7988 L10,98.4883 " fill="#EEEEEE" style="stroke:#000000;stroke-width:1.5;"/><rect fill="none" height="60.6211" style="stroke:#000000;stroke-width:1.5;" width="617" x="10" y="98.4883"/><text fill="#000000" font-family="sans-serif" font-size="13" font-weight="bold" lengthAdjust="spacing" textLength="157" x="25" y="112.0566">highPriorityButtonState</text><polygon fill="#181818" points="518.5,117.7988,528.5,121.7988,518.5,125.7988,522.5,121.7988" style="stroke:#181818;stroke-width:1.0;"/><line style="stroke:#181818;stroke-width:1.0;" x1="49" x2="524.5" y1="121.7988" y2="121.7988"/><polygon fill="#181818" points="397.5,147.1094,387.5,151.1094,397.5,155.1094,393.5,151.1094" style="stroke:#181818;stroke-width:1.0;"/><line style="stroke:#181818;stroke-width:1.0;stroke-dasharray:2.0,2.0;" x1="391.5" x2="529.5" y1="151.1094" y2="151.1094"/><text fill="#000000" font-family="sans-serif" font-size="13" lengthAdjust="spacing" textLength="57" x="403.5" y="146.3672">returns 0</text><path d="M10,173.1094 L229,173.1094 L229,180.4199 L219,190.4199 L10,190.4199 L10,173.1094 " fill="#EEEEEE" style="stroke:#000000;stroke-width:1.5;"/><rect fill="none" height="60.6211" style="stroke:#000000;stroke-width:1.5;" width="818" x="10" y="173.1094"/><text fill="#000000" font-family="sans-serif" font-size="13" font-weight="bold" lengthAdjust="spacing" textLength="174" x="25" y="186.6777">normalPriorityButtonState</text><polygon fill="#181818" points="710.5,192.4199,720.5,196.4199,710.5,200.4199,714.5,196.4199" style="stroke:#181818;stroke-width:1.0;"/><line style="stroke:#181818;stroke-width:1.0;" x1="49" x2="716.5" y1="196.4199" y2="196.4199"/><polygon fill="#181818" points="397.5,221.7305,387.5,225.7305,397.5,229.7305,393.5,225.7305" style="stroke:#181818;stroke-width:1.0;"/><line style="stroke:#181818;stroke-width:1.0;stroke-dasharray:2.0,2.0;" x1="391.5" x2="721.5" y1="225.7305" y2="225.7305"/><text fill="#000000" font-family="sans-serif" font-size="13" lengthAdjust="spacing" textLength="57" x="403.5" y="220.9883">returns 0</text><path d="M10,247.7305 L169,247.7305 L169,255.041 L159,265.041 L10,265.041 L10,247.7305 " fill="#EEEEEE" style="stroke:#000000;stroke-width:1.5;"/><rect fill="none" height="88.6211" style="stroke:#000000;stroke-width:1.5;" width="1179" x="10" y="247.7305"/><text fill="#000000" font-family="sans-serif" font-size="13" font-weight="bold" lengthAdjust="spacing" textLength="114" x="25" y="261.2988">serveButtonState</text><polygon fill="#181818" points="875.5,267.041,885.5,271.041,875.5,275.041,879.5,271.041" style="stroke:#181818;stroke-width:1.0;"/><line style="stroke:#181818;stroke-width:1.0;" x1="49" x2="881.5" y1="271.041" y2="271.041"/><polygon fill="#181818" points="1007.5,281.041,1017.5,285.041,1007.5,289.041,1011.5,285.041" style="stroke:#181818;stroke-width:1.0;"/><line style="stroke:#181818;stroke-width:1.0;" x1="897.5" x2="1013.5" y1="285.041" y2="285.041"/><polygon fill="#181818" points="1118.5,295.041,1128.5,299.041,1118.5,303.041,1122.5,299.041" style="stroke:#181818;stroke-width:1.0;"/><line style="stroke:#181818;stroke-width:1.0;" x1="1019.5" x2="1124.5" y1="299.041" y2="299.041"/><polygon fill="#181818" points="60,324.3516,50,328.3516,60,332.3516,56,328.3516" style="stroke:#181818;stroke-width:1.0;"/><line style="stroke:#181818;stroke-width:1.0;stroke-dasharray:2.0,2.0;" x1="54" x2="1129.5" y1="328.3516" y2="328.3516"/><text fill="#000000" font-family="sans-serif" font-size="13" lengthAdjust="spacing" textLength="412" x="66" y="323.6094">retorna que paciente esta sendo atendido e o numero do paciente</text><polygon fill="#181818" points="1532.5,360.6621,1542.5,364.6621,1532.5,368.6621,1536.5,364.6621" style="stroke:#181818;stroke-width:1.0;"/><line style="stroke:#181818;stroke-width:1.0;stroke-dasharray:2.0,2.0;" x1="1254.5" x2="1538.5" y1="364.6621" y2="364.6621"/><text fill="#000000" font-family="sans-serif" font-size="13" lengthAdjust="spacing" textLength="261" x="1261.5" y="359.9199">salva no arquivo o entado corrente da fila</text><!--MD5=[232a60d557843696c826897a5b662c60]
@startuml diagrama_sequencia_GB

actor usuario

activate initializeFromPatientsQueueFile
deactivate initializeFromPatientsQueueFile

activate checkButtons

    group highPriorityButtonState
        usuario -> highPriorityButtonState
        highPriorityButtonState - -> checkButtons : returns 0
    end

    group normalPriorityButtonState
        usuario -> normalPriorityButtonState
        normalPriorityButtonState - -> checkButtons : returns 0
    end

    group serveButtonState
        activate serveButtonState
            usuario -> serveButtonState
            serveButtonState -> checkQueues
            checkQueues -> servePatient
            servePatient - -> usuario : retorna que paciente esta sendo atendido e o numero do paciente
        deactivate serveButtonState
    end
deactivate checkButtons

activate saveCurrentState
    saveCurrentState - -> pacients.txt : salva no arquivo o entado corrente da fila
deactivate saveCurrentState


@enduml diagrama_sequencia_GB

PlantUML version 1.2022.7(Mon Aug 22 14:01:30 BRT 2022)
(GPL source distribution)
Java Runtime: OpenJDK Runtime Environment
JVM: OpenJDK 64-Bit Server VM
Default Encoding: UTF-8
Language: pt
Country: BR
--></g></svg>